<svg id="HandWriting" xmlns="http://www.w3.org/2000/svg" viewBox="0 0 799.69 415.15"><title>WelcomeMessage_OL</title><path d="M90.71,0h4c1.31.56,2.64,1.89,4,4V5.52q0,4.1-8,10Q61.36,44,52.58,57.65A251.82,251.82,0,0,0,30,89.65q-19,34.88-19,52.12c0,3,1,5,2.95,6q10.82,0,34.11-22.54l21.56-20q29.06-28.07,37.08-33.06h5c4.34,1.72,6.5,3.38,6.5,5v2q0,1.14-7.49,15.06,0,1.35-6,11.5a185.48,185.48,0,0,0-14,41.07,4,4,0,0,1,.45,1.52,5.65,5.65,0,0,0-1,2.49q0,12.57,3.48,12.56,0,1.51,5.07,2,14-1.44,39-23.53,0-.9,18.08-17.55.07-1.59,5.45-6a554.89,554.89,0,0,0,45.62-55.15Q229.31,30.57,243.52,14l1-.46h1c.66,0,1.16,1.16,1.51,3.48-1,0-2.17,2.68-3.48,8q-9.37,13.4-10.06,17-3.93,4.32-20.5,30.57l-28.6,37.07q-1.12,0-7.49,8-31.08,32.91-37.07,36.09-10.67,10.81-21.56,15.51,0,1.29-12,4a22.72,22.72,0,0,0-4,.53q-14.68,0-20.58-9a17.35,17.35,0,0,1-2.5-9.53v-.53q0-22.92,17.55-59.08h-1q0,.83-21,20-36.54,36.17-43.58,37.07-3.48,2.34-11,3.48-20.05,0-20-14v-5Q3.78,113.4,14,96.68q0-4.38,29.58-47.05Q56.89,32.46,85.18,4,85.87,4,90.71,0Z"/><path d="M214.32,116.81q10.74,1.43,10.74,7.64,0,8.62-9.15,14.82-8.4,7.13-17.85,7.12H196c-4.43-.66-7.16-1.49-8.17-2.5h-.53l-.45,3.56v2.49q0,6,7.64,7.19,10.51,0,47.89-18.91c3-1.67,5.57-2.5,7.64-2.5,1.36.5,2,1,2,1.51v3.56A39.7,39.7,0,0,1,237.77,152Q208,166.29,194.5,166.28q-11.88,0-17.4-11.72a21.54,21.54,0,0,1-1-7.11q0-15.67,20.42-27Q209.26,116.81,214.32,116.81Zm-23.45,21.41h.53q12.85,0,21.94-11.2v-1h-.53q-10.37,0-21.94,11.19Z"/><path d="M281,63.17q5,0,7,3.71V69q-6,12.95-19.21,35.86L255.85,131a172.48,172.48,0,0,0-8.54,22.39v3.25q6.57,0,35.33-20.88,11.26-6.87,12.78-6.88H297c.7.1,1.06.45,1.06,1.06v1.59q0,5.67-12.79,13.92-26.47,20.81-38.5,20.8-11.21-2.34-11.2-10.13.6-7.28,13.39-36.39l18.16-34.2q10.81-20.11,12.25-21.33C279.38,63.52,279.91,63.17,281,63.17Z"/><path d="M319.48,115.75q11,0,16.64,6.58v2.5c0,1-1.33,1.63-4,2q-1.59,0-8.62-3-10.51,0-21.71,16.19a32.08,32.08,0,0,0-2,10.06v1.06q2.58,9.07,11.12,9.08H317q9.76-.15,35.86-21.26a35.25,35.25,0,0,1,6.05-1l.53,1V140q0,4.54-8.09,11.12Q333,168.33,318.49,168.33h-2.57q-18.92,0-24.28-10.6-1.51-2.19-2.5-9.6,0-14.61,19.75-29.36Q315.31,115.76,319.48,115.75Z"/><path d="M376.67,116.88h3.41q5.82,3.63,5.82,7,4.92,4.77,14.6,4.77a56,56,0,0,0,12.63-1.74q4.85,0,4.85,3.48-3.41,6-17,6.05a59.85,59.85,0,0,1-12.64-2.19q0,8.92-14.52,24.28a23.13,23.13,0,0,1-17.55,7.79h-1Q346,164.09,346,158q-.45-.54-.45-3v-1.29q0-9.53,15.05-26.85Q371.84,116.88,376.67,116.88Zm-20.88,39.87,1,1.74q8.1-2.42,18.92-19.06a31.8,31.8,0,0,0,2.42-7q-1.51-4.77-2.88-4.77Q355.79,143.06,355.79,156.75Z"/><path d="M421,108.48h3.1a5.13,5.13,0,0,1,2.58,4.77q0,1.66-6.13,16.19l-2.57,7q16.26-12.86,23.15-13.09h3.48q5.22,0,7,8.7a3.43,3.43,0,0,0-.46,1.36h.46q11.42-9.15,20.5-9.15h1.36q6.51,1.07,6.51,5.22v3q0,5.37-10.07,27.53a25.48,25.48,0,0,0-1.74,6.13c.46,1.16.91,1.74,1.37,1.74q7.56,0,36.23-29.28c0-.3.58-.73,1.74-1.28h2.12c.61.1.91.38.91.83q0,6.59-5.67,12.71-17.94,19.29-26.63,23.53a17.28,17.28,0,0,1-9.16,2.19q-6.66,0-10.06-7.41v-3q0-5.67,7.41-21.41l4.39-11.35q-10,1.66-21.41,16.12-5.22,6.58-6.13,12.25l-2.11,1.74h-2.65c-1.57,0-3.15-1.46-4.77-4.38v-.84q0-1.2,3.86-10.51A78.19,78.19,0,0,0,442,133.37v-.9q-8.18,1.59-25.34,18.38,0,.68-5.23,8.7,0,4.15-2.19,5.67h-4.77q-3.93-2.49-3.93-5.67,6.58-16.5,6.58-20.05,9.54-24.36,10.9-29.73A4.88,4.88,0,0,1,421,108.48Z"/><path d="M539.85,116.81q10.74,1.43,10.74,7.64,0,8.62-9.15,14.82-8.4,7.13-17.85,7.12h-2.05c-4.43-.66-7.16-1.49-8.17-2.5h-.53l-.45,3.56v2.49q0,6,7.64,7.19,10.51,0,47.89-18.91,4.53-2.5,7.64-2.5c1.36.5,2,1,2,1.51v3.56A39.7,39.7,0,0,1,563.3,152q-29.81,14.31-43.27,14.3-11.88,0-17.4-11.72a21.54,21.54,0,0,1-1-7.11q0-15.67,20.42-27Q534.79,116.81,539.85,116.81ZM516.4,138.22h.53q12.86,0,21.94-11.2v-1h-.53Q528,126,516.4,137.23Z"/><path d="M672.13,34.24h2.49c.71.1,1.06.43,1.06,1v2q0,9.69-20.8,50.84a124.73,124.73,0,0,1-7.64,18.31c2,.3,3,.63,3,1l3.56-.53h8.62a81.22,81.22,0,0,0,14.76-1,.47.47,0,0,1,.53.53l2.49-.53h20.35q6.13,0,6.13,2v1.51q0,5.07-36.09,7.12-5.6,1.52-22.39,1.51h-5.07q-1,.52-9.61,22.85-5.14,14.37-9.68,22.39a31.27,31.27,0,0,1-5.07,1q-3.09,0-5.6-3.55v-2q2.05-1.81,14.23-30.94,6.57-14.89,9.15-22.39Q647.23,80.08,662,51q7-13.62,9.08-15.81C671.22,34.57,671.57,34.24,672.13,34.24Z"/><path d="M680.45,114.88h3.4q5.83,3.63,5.83,7,4.92,4.77,14.6,4.77a56,56,0,0,0,12.63-1.74q4.85,0,4.84,3.48-3.39,6-17,6.05a59.85,59.85,0,0,1-12.63-2.19q0,8.92-14.53,24.28A23.1,23.1,0,0,1,660,164.28h-1q-9.22-2.19-9.23-8.24-.45-.54-.45-3v-1.29q0-9.53,15-26.85Q675.6,114.88,680.45,114.88Zm-20.88,39.87,1,1.74q8.1-2.42,18.92-19.06a31.8,31.8,0,0,0,2.42-7q-1.51-4.77-2.88-4.77Q659.57,141.06,659.57,154.75Z"/><path d="M203.31,186.86h.91q6.51,0,6.51,4.62-.45,2.19-4.62,9.76-10.74,25.88-22.69,79.21-12.55,55.91-12.56,85.71.38,9.91,1.44,11.12,0,6-4.16,6.05h-.53q-6.44-1.59-6.43-15.28v-1.44q0-35.78,19.89-120.44.92-1.65,6.51-23.14-4,3.78-20.43,33.81l-13.39,20.35L144,290.66Q138.26,299,132.88,299h-1.36q-12.11-1.82-12.1-12v-1.36a198.7,198.7,0,0,1,6-46.38v-.45H125l-21.78,49.55A442.06,442.06,0,0,1,74,334.69q-19.61,26.4-36.62,26.4-9.52,0-11.58-10.67,0-13.76,10.67-40.32,8.4-18.53,13.92-18.53A5.89,5.89,0,0,1,55,293.91v2.27q0,1.21-9.31,16.72-10.14,26.78-10.14,34.72v2.8a5.57,5.57,0,0,0,.91,2.8q15.59,0,49.1-53.33,14.82-25.27,42.21-92.22a112.08,112.08,0,0,0,8.33-19,14.18,14.18,0,0,1,4.61-1.36c3.28,1.11,5.14,2.34,5.6,3.7v.91q-5.59,19.22-12.56,56.06a189,189,0,0,0-4.61,31.09v4.62q.3,6,1.81,6.05,5.44-4.08,16.72-21.33a327.64,327.64,0,0,0,19.44-31.55,572,572,0,0,1,33.36-49.55Z"/><path d="M207.25,304.35q4.16,0,4.16,5.22v.53q-13.47,16.8-15.66,26.71a.47.47,0,0,0-.53.53l.53,1-.53,2.65a3.12,3.12,0,0,0,2.57,2.64q14.44-4.23,37.15-34l2.12-1.59q6.94,0,9.38,4.24v3.1q-7.35,9.92-7.34,10.44h.53q1.27,0,14.14-7.26,7.87-3.71,10.44-3.71h.53a4.47,4.47,0,0,1,2.65,4.24v.45q-2.42,5.83-12.56,10-15,9.15-29.27,17.25-3.18,2.26-10,10.44-19.22,19.89-29.81,24-3.09,3-27.16,13.09h-1.06q-5.37-2-6.27-4.16V387q.07-1.81,9.38-8.32,31.54-23.14,35.63-26.7-11.58-3.18-11.58-11.5v-1.59q0-14.76,19.37-34.5Z"/><path d="M435.34,187.32h.91a.4.4,0,0,1,.45.45l1-.45h.46q26.25,0,43.95,26.85,4.17,9.39,4.16,15.29,0,22.85-36.08,49-3,3.25-25.05,15.28c-3.73,1.77-6.95,3.45-9.68,5.07l-27.31,12a197,197,0,0,1-20.8,5.6,133,133,0,0,1-7,12.93,270.42,270.42,0,0,1-25,38,31.79,31.79,0,0,1-8.32,1.81h-1.44c-.9-.3-1.36-1.23-1.36-2.79q10.44-11.65,29.58-47.66H343.72Q329,317.37,311.8,306.24q-9.76-9.3-10.67-14.82l1.36-.91H303q2.71,1.13,7.87,7,17.85,14.29,33.36,14.3,5.9-.47,6.5-.91l.91.45q8.4,0,9.69-5.52,21.63-38.73,29.2-59.69,11.56-29.5,11.57-42.59c0-.46.46-.91,1.36-1.36q9.69,0,9.69,5.52,0,20-26.33,74.06-3,3.86-13,24.06h.53Q407.5,295,441.39,273,461.6,257.83,471,242.85q4.84-7.95,5.6-14.83,0-12.78-14.83-25-10.74-7.41-25.95-7.41-21.26,0-48.57,12-1.05,1.29-8.77,5.07-10.81,6.51-26.86,22.24-8.7,9.68-9.76,16.64a5.37,5.37,0,0,1-2.72.91q-6.51-.6-6.51-5.52,3.18-18.24,40.7-43Q404.62,187.33,435.34,187.32Z"/><path d="M430,303.9h3.41q5.82,3.63,5.82,7,4.92,4.77,14.6,4.76a56.13,56.13,0,0,0,12.64-1.74c3.22,0,4.84,1.16,4.84,3.48q-3.41,6.06-17,6.06-8.7-.84-12.64-2.2,0,8.92-14.52,24.29a23.13,23.13,0,0,1-17.55,7.79h-1q-9.22-2.19-9.23-8.25c-.3-.35-.45-1.36-.45-3v-1.29q0-9.54,15.05-26.86Q425.21,303.91,430,303.9Zm-20.88,39.87,1,1.74q8.09-2.43,18.91-19.07a31.8,31.8,0,0,0,2.42-7c-1-3.18-2-4.76-2.87-4.76Q409.16,330.08,409.16,343.77Z"/><path d="M474.3,300.12c1.66.85,2.5,2.87,2.5,6.05q6-2.51,7-2.5h3q7.56,0,10.51,7,1.14,6.5,2.5,6.5,10.29-5.52,13.54-5.52h.53c.66.1,1,.43,1,1v4q-5.75,8.7-13,10.06H500.4q-12.56-1.2-12.56-11c0-1.66-.5-2.5-1.51-2.5q-7.57,3.71-15.51,14.53-10.44,14.52-13.54,21c-1.52,3-2.52,4.54-3,4.54h-5q-4.54-1.89-4.54-5v-.52q2-5.91,9.53-17.56l14.53-30.1Z"/><path d="M557,223.25h2.49c.71.1,1.06.43,1.06,1v2q0,9.69-20.8,50.84a125.64,125.64,0,0,1-7.64,18.3c2,.31,3,.64,3,1l3.56-.53h8.62a81,81,0,0,0,14.76-1,.46.46,0,0,1,.52.53l2.5-.53h20.35c4.09,0,6.13.69,6.13,2.05v1.51q0,5.07-36.09,7.11-5.6,1.51-22.39,1.52H528q-1,.53-9.61,22.84-5.14,14.37-9.68,22.39a31.8,31.8,0,0,1-5.07,1c-2.07,0-3.93-1.19-5.6-3.56v-2q2.06-1.81,14.23-30.94,6.57-14.91,9.15-22.39,10.67-25.28,25.42-54.32,7-13.62,9.08-15.81C556.08,223.58,556.43,223.25,557,223.25Z"/><path d="M618.26,245a19.34,19.34,0,0,1,16.8,8.7,53.05,53.05,0,0,1,1.13,7.64q-1.82,13.55-8.7,13.54h-1.66q-.75,0-1.59-2.19a63,63,0,0,0,1.59-12.48v-1.06a6.15,6.15,0,0,0-2.72-4.92q-21.11,0-48.87,32.61-11,15.12-12.49,22.24H564a29,29,0,0,0,4.91-.53.47.47,0,0,1,.53.53L584.07,307h7.57q3.78,0,3.78,4.84,0,5.07-27.69,7.11H557.44q-11.81,30.57-16.34,34.2a4,4,0,0,0-1.59.53q-5.44-.76-5.45-3.79,12.5-32.37,12.49-34.19a34.25,34.25,0,0,1-13-9.84v-1.58c0-2,.73-3.23,2.19-3.79h1.59q4,0,13.09,6.51,18.45-41.91,52.65-57.57A51.83,51.83,0,0,1,618.26,245Z"/><path d="M615.47,303.9h3.4q5.82,3.63,5.83,7,4.9,4.77,14.6,4.76a56,56,0,0,0,12.63-1.74q4.85,0,4.84,3.48-3.4,6.06-17,6.06-8.7-.84-12.63-2.2,0,8.92-14.53,24.29A23.13,23.13,0,0,1,595,353.3h-1q-9.24-2.19-9.23-8.25c-.31-.35-.46-1.36-.46-3v-1.29q0-9.54,15.06-26.86Q610.62,303.91,615.47,303.9Zm-20.88,39.87,1,1.74q8.1-2.43,18.91-19.07a31.25,31.25,0,0,0,2.42-7c-1-3.18-2-4.76-2.87-4.76Q594.59,330.08,594.59,343.77Z"/><path d="M682.87,250.18q5,0,7,3.71V256q-6,12.93-19.21,35.86L657.75,318a172.64,172.64,0,0,0-8.54,22.4v3.25q6.57,0,35.33-20.88,11.26-6.88,12.78-6.88h1.59c.71.1,1.06.45,1.06,1.06v1.58q0,5.69-12.79,13.92-26.48,20.81-38.5,20.81-11.2-2.34-11.2-10.14.6-7.26,13.39-36.39L669,272.58q10.82-20.13,12.25-21.34C681.28,250.54,681.81,250.18,682.87,250.18Z"/><path d="M704.51,307.38q8.32,0,8.32,4.69,0,.9-5.83,8.93-10,15-11.27,19.44h.53q3.93,0,32.23-20.5,5-4.17,9.3-4.17a6.11,6.11,0,0,1,1.44,3.64v.53q0,9.9-39.11,30.48a39.59,39.59,0,0,1-8.32,1.06q-8.77-1.12-8.78-7.34v-.53q0-9.67,15.66-29.95Q702,307.38,704.51,307.38Zm22.54-47.81h1.44c2.62,2.22,3.93,4.48,3.93,6.8q0,5.83-5.37,14.23-8.16,13.08-14.22,13.08h-1q-7,0-7.8-8.39a97,97,0,0,1,7.34-11.05q.69-2,4.39-2h1l3.41.45a29.67,29.67,0,0,0,5.37-12Z"/><path d="M753.38,303.9h3.4q5.84,3.63,5.83,7,4.92,4.77,14.6,4.76a56,56,0,0,0,12.63-1.74q4.85,0,4.85,3.48-3.41,6.06-17,6.06-8.7-.84-12.63-2.2,0,8.92-14.53,24.29A23.13,23.13,0,0,1,733,353.3h-1q-9.22-2.19-9.23-8.25c-.3-.35-.45-1.36-.45-3v-1.29q0-9.54,15.05-26.86Q748.53,303.91,753.38,303.9ZM732.5,343.77l1,1.74q8.1-2.43,18.92-19.07a31.8,31.8,0,0,0,2.42-7c-1-3.18-2-4.76-2.88-4.76Q732.5,330.08,732.5,343.77Z"/></svg>